<?xml version="1.0" encoding="UTF-8"?>
<!DOCTYPE svg PUBLIC "-//W3C//DTD SVG 1.0//EN" "http://www.w3.org/TR/2001/REC-SVG-20010904/DTD/svg10.dtd">
<!-- Creator: CorelDRAW 2017 -->
<svg xmlns="http://www.w3.org/2000/svg" xml:space="preserve" width="816px" height="235px" version="1.0" style="shape-rendering:geometricPrecision; text-rendering:geometricPrecision; image-rendering:optimizeQuality; fill-rule:evenodd; clip-rule:evenodd"
viewBox="0 0 102.58 29.54"
 xmlns:xlink="http://www.w3.org/1999/xlink">
 <defs>
  <style type="text/css">
   <![CDATA[
    .fil0 {fill:#15401F;fill-rule:nonzero}
    .fil1 {fill:#FECC00;fill-rule:nonzero}
    .fil4 {fill:#F4C62C;fill-rule:nonzero}
    .fil3 {fill:#1D1D1E;fill-rule:nonzero}
    .fil2 {fill:#009846;fill-rule:nonzero}
   ]]>
  </style>
 </defs>
 <g id="Layer_x0020_1">
  <metadata id="CorelCorpID_0Corel-Layer"/>
  <path class="fil0" d="M35.26 9.37l-1.57 0c-0.01,-0.18 -0.07,-0.31 -0.2,-0.39 -0.13,-0.09 -0.34,-0.13 -0.63,-0.13l-0.4 0c-0.35,0 -0.59,0.07 -0.71,0.2 -0.11,0.13 -0.17,0.44 -0.17,0.94l0 0.97c0,0.49 0.06,0.8 0.17,0.93 0.12,0.13 0.36,0.2 0.71,0.2l0.44 0c0.31,0 0.52,-0.04 0.65,-0.13 0.12,-0.09 0.18,-0.23 0.18,-0.45l0 -0.22 -0.9 0 0 -1.1 2.43 0 0 1c0,0.79 -0.18,1.37 -0.52,1.73 -0.35,0.36 -0.9,0.54 -1.65,0.54l-1.06 0c-0.66,0 -1.16,-0.2 -1.5,-0.62 -0.34,-0.42 -0.51,-1.04 -0.51,-1.85l0 -0.89c0,-0.91 0.18,-1.57 0.54,-1.99 0.36,-0.42 0.92,-0.63 1.7,-0.63l0.85 0c0.63,0 1.14,0.16 1.54,0.47 0.4,0.31 0.61,0.7 0.61,1.18l0 0.24z"/>
  <path class="fil0" d="M38.91 10.37l0.87 0c0.26,0 0.44,-0.04 0.53,-0.14 0.1,-0.09 0.15,-0.26 0.15,-0.5l0 -0.23c0,-0.24 -0.05,-0.42 -0.15,-0.51 -0.09,-0.09 -0.27,-0.14 -0.53,-0.14l-0.87 0 0 1.52zm-1.57 3.02l0 -5.84 2.35 0c0.9,0 1.52,0.12 1.86,0.35 0.33,0.24 0.5,0.66 0.5,1.25l0 0.47c0,0.4 -0.1,0.71 -0.29,0.93 -0.19,0.22 -0.47,0.36 -0.84,0.41 0.39,0.06 0.68,0.19 0.86,0.39 0.18,0.19 0.27,0.47 0.27,0.84l0 1.2 -1.6 0 0 -1.05c0,-0.25 -0.05,-0.42 -0.15,-0.51 -0.09,-0.09 -0.27,-0.14 -0.53,-0.14l-0.86 0 0 1.7 -1.57 0z"/>
  <path class="fil0" d="M46.12 11.18l1.28 0 -0.58 -2.42 -0.1 0 -0.6 2.42zm-2.23 2.21l1.68 -5.84 2.41 0 1.64 5.84 -1.68 0 -0.27 -1.02 -1.84 0 -0.26 1.02 -1.68 0z"/>
  <path class="fil0" d="M52.77 12.09l1.17 0c0.35,0 0.59,-0.06 0.7,-0.19 0.11,-0.13 0.17,-0.44 0.17,-0.94l0 -0.97c0,-0.5 -0.06,-0.81 -0.17,-0.94 -0.11,-0.13 -0.35,-0.2 -0.7,-0.2l-1.17 0 0 3.24zm-1.57 1.3l0 -5.84 2.98 0c0.82,0 1.4,0.17 1.73,0.52 0.34,0.34 0.5,0.95 0.5,1.81l0 1.18c0,0.86 -0.16,1.47 -0.5,1.81 -0.33,0.35 -0.91,0.52 -1.73,0.52l-2.98 0z"/>
  <path class="fil0" d="M59.79 7.55l1.66 0 1.14 4.56 1.18 -4.56 1.66 0 -1.66 5.84 -2.37 0 -1.61 -5.84z"/>
  <path class="fil0" d="M68.2 11.18l1.28 0 -0.58 -2.42 -0.11 0 -0.59 2.42zm-2.24 2.21l1.68 -5.84 2.41 0 1.64 5.84 -1.67 0 -0.27 -1.02 -1.84 0 -0.27 1.02 -1.68 0z"/>
  <path class="fil0" d="M72.95 13.39l0 -5.84 1.58 0 0 4.48 2.62 0 0 1.36 -4.2 0z"/>
  <path class="fil0" d="M80.39 10.53l1.09 0c0.26,0 0.43,-0.04 0.51,-0.14 0.09,-0.09 0.13,-0.27 0.13,-0.55l0 -0.34c0,-0.23 -0.05,-0.39 -0.16,-0.49 -0.11,-0.1 -0.29,-0.15 -0.54,-0.15l-1.03 0 0 1.67zm-1.56 2.86l0 -5.84 2.73 0c0.78,0 1.33,0.15 1.66,0.45 0.33,0.3 0.5,0.8 0.5,1.5l0 0.38c0,0.7 -0.17,1.2 -0.5,1.5 -0.34,0.3 -0.89,0.45 -1.66,0.45l-1.17 0 0 1.56 -1.56 0z"/>
  <path class="fil0" d="M86.47 9.99l0 0.97c0,0.5 0.06,0.81 0.17,0.94 0.11,0.13 0.35,0.19 0.7,0.19l0.29 0c0.36,0 0.6,-0.07 0.71,-0.2 0.12,-0.13 0.17,-0.44 0.17,-0.93l0 -0.97c0,-0.49 -0.05,-0.81 -0.17,-0.94 -0.11,-0.13 -0.35,-0.2 -0.71,-0.2l-0.29 0c-0.35,0 -0.59,0.07 -0.7,0.2 -0.11,0.13 -0.17,0.44 -0.17,0.94zm-1.6 -0.13c0,-0.88 0.17,-1.5 0.5,-1.85 0.33,-0.36 0.91,-0.53 1.73,-0.53l0.77 0c0.83,0 1.41,0.18 1.75,0.53 0.33,0.35 0.5,0.97 0.5,1.85l0 1.22c0,0.88 -0.17,1.5 -0.5,1.85 -0.34,0.36 -0.92,0.53 -1.75,0.53l-0.77 0c-0.82,0 -1.4,-0.17 -1.73,-0.52 -0.33,-0.36 -0.5,-0.98 -0.5,-1.86l0 -1.22z"/>
  <path class="fil0" d="M90.89 7.55l1.67 0 1.13 4.56 1.19 -4.56 1.66 0 -1.67 5.84 -2.37 0 -1.61 -5.84z"/>
  <path class="fil0" d="M98.91 9.99l0 0.97c0,0.5 0.06,0.81 0.17,0.94 0.11,0.13 0.35,0.19 0.71,0.19l0.29 0c0.35,0 0.59,-0.07 0.7,-0.2 0.12,-0.13 0.18,-0.44 0.18,-0.93l0 -0.97c0,-0.49 -0.06,-0.81 -0.18,-0.94 -0.11,-0.13 -0.35,-0.2 -0.7,-0.2l-0.29 0c-0.36,0 -0.59,0.07 -0.71,0.2 -0.11,0.13 -0.17,0.44 -0.17,0.94zm-1.6 -0.13c0,-0.88 0.17,-1.5 0.5,-1.85 0.33,-0.36 0.91,-0.53 1.74,-0.53l0.76 0c0.83,0 1.41,0.18 1.75,0.53 0.33,0.35 0.5,0.97 0.5,1.85l0 1.22c0,0.88 -0.17,1.5 -0.5,1.85 -0.34,0.36 -0.92,0.53 -1.75,0.53l-0.76 0c-0.83,0 -1.41,-0.17 -1.74,-0.52 -0.33,-0.36 -0.5,-0.98 -0.5,-1.86l0 -1.22z"/>
  <path class="fil0" d="M30 18.24c0,-0.72 0.14,-1.22 0.41,-1.5 0.28,-0.28 0.76,-0.43 1.46,-0.43l0.66 0c0.69,0 1.17,0.13 1.45,0.37 0.28,0.24 0.42,0.65 0.42,1.23l0 0.25 -0.64 0 0 -0.16c0,-0.42 -0.09,-0.71 -0.26,-0.87 -0.18,-0.15 -0.51,-0.23 -1.02,-0.23l-0.43 0c-0.34,0 -0.59,0.02 -0.74,0.06 -0.16,0.04 -0.29,0.11 -0.39,0.21 -0.1,0.1 -0.18,0.22 -0.22,0.38 -0.04,0.15 -0.06,0.43 -0.06,0.84l0 1.6c0,0.41 0.02,0.69 0.06,0.84 0.04,0.16 0.12,0.28 0.22,0.38 0.1,0.1 0.23,0.17 0.37,0.21 0.15,0.04 0.4,0.06 0.76,0.06l0.43 0c0.52,0 0.86,-0.08 1.03,-0.25 0.17,-0.16 0.26,-0.47 0.26,-0.93 0,-0.07 0,-0.13 0,-0.17 0,-0.03 -0.01,-0.07 -0.01,-0.1l0.64 0 0 0.37c0,0.62 -0.14,1.05 -0.41,1.3 -0.27,0.24 -0.76,0.36 -1.46,0.36l-0.66 0c-0.7,0 -1.18,-0.14 -1.46,-0.42 -0.27,-0.28 -0.41,-0.78 -0.41,-1.5l0 -1.9z"/>
  <path class="fil0" d="M36.78 16.38l0.62 0 0 5.62 -0.62 0 0 -5.62z"/>
  <path class="fil0" d="M39.24 16.98l0 -0.6 4.21 0 0 0.6 -1.8 0 0 5.02 -0.62 0 0 -5.02 -1.79 0z"/>
  <path class="fil0" d="M47.17 22l-0.61 0 0 -2.49 -2.32 -3.13 0.73 0 1.89 2.62 1.9 -2.62 0.73 0 -2.32 3.12 0 2.5z"/>
  <path class="fil0" d="M54.19 16.9l-0.34 0c-0.4,0 -0.68,0.02 -0.84,0.06 -0.16,0.05 -0.3,0.12 -0.42,0.22 -0.11,0.09 -0.19,0.22 -0.24,0.38 -0.04,0.17 -0.06,0.44 -0.06,0.84l0 1.59c0,0.39 0.02,0.67 0.06,0.83 0.05,0.16 0.13,0.28 0.24,0.38 0.12,0.1 0.26,0.17 0.42,0.21 0.16,0.05 0.44,0.07 0.84,0.07l0.34 0c0.4,0 0.68,-0.02 0.84,-0.07 0.17,-0.04 0.31,-0.11 0.43,-0.21 0.11,-0.09 0.18,-0.22 0.23,-0.37 0.04,-0.16 0.06,-0.44 0.06,-0.84l0 -1.6c0,-0.39 -0.02,-0.67 -0.06,-0.83 -0.05,-0.17 -0.13,-0.29 -0.24,-0.39 -0.11,-0.1 -0.25,-0.17 -0.42,-0.21 -0.16,-0.04 -0.44,-0.06 -0.84,-0.06zm-2.55 1.34c0,-0.72 0.15,-1.22 0.45,-1.5 0.3,-0.28 0.82,-0.42 1.58,-0.42l0.71 0c0.76,0 1.29,0.13 1.58,0.41 0.3,0.28 0.44,0.78 0.44,1.51l0 1.9c0,0.72 -0.15,1.22 -0.45,1.5 -0.29,0.28 -0.82,0.42 -1.57,0.42l-0.71 0c-0.76,0 -1.28,-0.14 -1.58,-0.42 -0.3,-0.28 -0.45,-0.78 -0.45,-1.5l0 -1.9z"/>
  <path class="fil0" d="M58.21 22l0 -5.62 3.5 0 0 0.6 -2.89 0 0 1.83 2.8 0 0 0.58 -2.8 0 0 2.61 -0.61 0z"/>
  <path class="fil0" d="M64.72 16.38l0.66 0 1.79 5.03 1.8 -5.03 0.66 0 -2.05 5.62 -0.81 0 -2.05 -5.62z"/>
  <path class="fil0" d="M71.46 20.01l2.43 0 -1.12 -3.03 -0.2 0 -1.11 3.03zm-1.37 1.99l2.07 -5.62 1.02 0 2.09 5.62 -0.64 0 -0.54 -1.44 -2.84 0 -0.52 1.44 -0.64 0z"/>
  <path class="fil0" d="M76.29 22l0 -5.62 0.61 0 0 5.03 3.18 0 0 0.59 -3.79 0z"/>
  <path class="fil0" d="M85.05 18.51l0 -0.82c0,-0.27 -0.06,-0.46 -0.19,-0.56 -0.13,-0.1 -0.4,-0.15 -0.83,-0.15l-1.74 0 0 2.25 1.74 0c0.42,0 0.69,-0.06 0.82,-0.16 0.13,-0.1 0.2,-0.29 0.2,-0.56zm-3.37 3.49l0 -5.62 2.36 0c0.63,0 1.06,0.1 1.3,0.28 0.24,0.19 0.36,0.52 0.36,1l0 0.85c0,0.5 -0.12,0.84 -0.35,1.02 -0.24,0.19 -0.67,0.29 -1.31,0.29l-1.75 0 0 2.18 -0.61 0z"/>
  <path class="fil0" d="M89.36 16.9l-0.35 0c-0.39,0 -0.67,0.02 -0.83,0.06 -0.17,0.05 -0.31,0.12 -0.42,0.22 -0.11,0.09 -0.19,0.22 -0.24,0.38 -0.04,0.17 -0.07,0.44 -0.07,0.84l0 1.59c0,0.39 0.03,0.67 0.07,0.83 0.05,0.16 0.13,0.28 0.24,0.38 0.11,0.1 0.25,0.17 0.42,0.21 0.16,0.05 0.44,0.07 0.83,0.07l0.35 0c0.4,0 0.68,-0.02 0.84,-0.07 0.17,-0.04 0.31,-0.11 0.43,-0.21 0.11,-0.09 0.18,-0.22 0.23,-0.37 0.04,-0.16 0.06,-0.44 0.06,-0.84l0 -1.6c0,-0.39 -0.02,-0.67 -0.07,-0.83 -0.04,-0.17 -0.12,-0.29 -0.23,-0.39 -0.12,-0.1 -0.26,-0.17 -0.42,-0.21 -0.16,-0.04 -0.44,-0.06 -0.84,-0.06zm-2.55 1.34c0,-0.72 0.15,-1.22 0.45,-1.5 0.29,-0.28 0.82,-0.42 1.58,-0.42l0.71 0c0.76,0 1.29,0.13 1.58,0.41 0.29,0.28 0.44,0.78 0.44,1.51l0 1.9c0,0.72 -0.15,1.22 -0.45,1.5 -0.29,0.28 -0.82,0.42 -1.57,0.42l-0.71 0c-0.76,0 -1.29,-0.14 -1.58,-0.42 -0.3,-0.28 -0.45,-0.78 -0.45,-1.5l0 -1.9z"/>
  <path class="fil0" d="M92.24 16.38l0.66 0 1.79 5.03 1.8 -5.03 0.66 0 -2.05 5.62 -0.81 0 -2.05 -5.62z"/>
  <path class="fil0" d="M100.37 16.9l-0.35 0c-0.39,0 -0.67,0.02 -0.83,0.06 -0.17,0.05 -0.31,0.12 -0.43,0.22 -0.11,0.09 -0.18,0.22 -0.23,0.38 -0.04,0.17 -0.07,0.44 -0.07,0.84l0 1.59c0,0.39 0.03,0.67 0.07,0.83 0.05,0.16 0.12,0.28 0.23,0.38 0.12,0.1 0.26,0.17 0.43,0.21 0.16,0.05 0.44,0.07 0.83,0.07l0.35 0c0.39,0 0.67,-0.02 0.84,-0.07 0.17,-0.04 0.31,-0.11 0.43,-0.21 0.1,-0.09 0.18,-0.22 0.22,-0.37 0.05,-0.16 0.07,-0.44 0.07,-0.84l0 -1.6c0,-0.39 -0.02,-0.67 -0.07,-0.83 -0.04,-0.17 -0.12,-0.29 -0.23,-0.39 -0.12,-0.1 -0.26,-0.17 -0.42,-0.21 -0.16,-0.04 -0.44,-0.06 -0.84,-0.06zm-2.55 1.34c0,-0.72 0.15,-1.22 0.45,-1.5 0.29,-0.28 0.82,-0.42 1.58,-0.42l0.7 0c0.77,0 1.3,0.13 1.59,0.41 0.29,0.28 0.44,0.78 0.44,1.51l0 1.9c0,0.72 -0.15,1.22 -0.45,1.5 -0.3,0.28 -0.82,0.42 -1.58,0.42l-0.7 0c-0.76,0 -1.29,-0.14 -1.58,-0.42 -0.3,-0.28 -0.45,-0.78 -0.45,-1.5l0 -1.9z"/>
  <path class="fil1" d="M1.04 1.04l0 19.44c0,4.5 4.31,8.02 9.83,8.02 5.6,0 9.82,-3.59 9.82,-8.36l0 -19.1 -19.65 0zm9.83 28.5c-6.1,0 -10.87,-3.98 -10.87,-9.06l0 -20.48 21.73 0 0 20.14c0,5.36 -4.67,9.4 -10.86,9.4z"/>
  <path class="fil2" d="M0.52 0.52l20.69 0 0 19.62c0,5.01 -4.4,8.88 -10.34,8.88 -5.95,0 -10.35,-3.87 -10.35,-8.54l0 -19.96z"/>
  <path class="fil3" d="M0.59 0.59l0 19.89c0,4.75 4.51,8.48 10.28,8.48 5.86,0 10.27,-3.79 10.27,-8.82l0 -19.55 -20.55 0zm10.28 28.5c-5.84,0 -10.42,-3.78 -10.42,-8.61l0 -20.03 20.83 0 0 19.69c0,5.1 -4.48,8.95 -10.41,8.95z"/>
  <path class="fil4" d="M0.52 18.01l0 2.47c0,1.05 0.22,2.05 0.63,2.98 0.01,0.01 0.02,0.02 0.04,0.02l0 -2.33c0,-2.01 4.13,-2.01 4.13,0l0 2.06 2.01 0 0 -2.06c0,-2.01 7.07,-2.01 7.07,0l0 2.06 2.01 0 0 -2.06c0,-2.01 4.13,-2.01 4.13,0l0 2.24c0.44,-1 0.67,-2.09 0.67,-3.25l0 -2.13 -20.69 0z"/>
  <path class="fil3" d="M14.5 23.12l1.81 0 0 -1.97c0,-1.1 1.12,-1.6 2.17,-1.6 1.04,0 2.16,0.5 2.16,1.6l0 1.74c0.32,-0.87 0.48,-1.8 0.48,-2.75l0 -2.04 -20.51 0 0 2.38c0,0.88 0.16,1.75 0.48,2.58l0 -1.91c0,-1.1 1.12,-1.6 2.17,-1.6 1.04,0 2.16,0.5 2.16,1.6l0 1.97 1.81 0 0 -1.97c0,-1.1 1.89,-1.6 3.63,-1.6 1.75,0 3.64,0.5 3.64,1.6l0 1.97zm-13.22 0.5l-0.19 -0.08 -0.03 -0.04c-0.42,-0.96 -0.64,-1.98 -0.64,-3.02l0 -2.57 20.89 0 0 2.23c0,1.15 -0.23,2.25 -0.68,3.29l-0.18 -0.04 0 -2.24c0,-0.97 -1.02,-1.41 -1.97,-1.41 -0.96,0 -1.98,0.44 -1.98,1.41l0 2.16 -2.19 0 0 -2.16c0,-0.54 -0.57,-0.86 -1.05,-1.04 -0.63,-0.24 -1.48,-0.37 -2.4,-0.37 -1.71,0 -3.44,0.48 -3.44,1.41l0 2.16 -2.19 0 0 -2.16c0,-0.97 -1.02,-1.41 -1.97,-1.41 -0.96,0 -1.98,0.44 -1.98,1.41l0 2.47z"/>
  <path class="fil4" d="M10.4 4.26l0.93 0 0 -1.2c0,-0.34 -0.93,-0.34 -0.93,0l0 1.2z"/>
  <path class="fil3" d="M10.49 4.16l0.75 0 0 -1.1c0,-0.04 -0.03,-0.08 -0.09,-0.11 -0.08,-0.03 -0.18,-0.05 -0.28,-0.05 -0.21,0 -0.38,0.07 -0.38,0.16l0 1.1zm0.94 0.19l-1.13 0 0 -1.29c0,-0.24 0.29,-0.35 0.57,-0.35 0.28,0 0.56,0.11 0.56,0.35l0 1.29z"/>
  <path class="fil4" d="M10.13 6.33l1.47 0 0 -1.87c0,-0.47 -1.47,-0.47 -1.47,0l0 1.87z"/>
  <path class="fil3" d="M10.23 6.23l1.27 0 0 -1.77c0,-0.09 -0.09,-0.14 -0.17,-0.18 -0.12,-0.05 -0.29,-0.08 -0.46,-0.08 -0.36,0 -0.64,0.11 -0.64,0.26l0 1.77zm1.47 0.19l-1.66 0 0 -1.96c0,-0.31 0.41,-0.45 0.83,-0.45 0.41,0 0.83,0.14 0.83,0.45l0 1.96z"/>
  <path class="fil4" d="M9.73 9.46l2.27 0 0 -3.07c0,-0.33 -2.27,-0.33 -2.27,0l0 3.07z"/>
  <path class="fil3" d="M9.83 9.37l2.07 0 0 -2.98c-0.03,-0.05 -0.37,-0.15 -1.03,-0.15 -0.67,0 -1.01,0.1 -1.05,0.16l0.01 2.97zm2.27 0.19l-2.47 0 0 -3.17c0,-0.3 0.78,-0.34 1.24,-0.34 0.45,0 1.23,0.04 1.23,0.34l0 3.17z"/>
  <path class="fil3" d="M11.26 7.13c0,0.22 -0.17,0.4 -0.39,0.4 -0.23,0 -0.4,-0.18 -0.4,-0.4 0,-0.22 0.17,-0.4 0.39,-0.4 0.23,0 0.4,0.18 0.4,0.4l-0.39 0 0.39 0z"/>
  <path class="fil3" d="M10.86 6.82c-0.08,0 -0.15,0.03 -0.21,0.09 -0.06,0.06 -0.09,0.14 -0.09,0.22 0,0.08 0.03,0.16 0.09,0.21 0.06,0.06 0.13,0.09 0.21,0.09l0 0c0.14,0 0.25,-0.09 0.29,-0.21l-0.29 0c-0.05,0 -0.09,-0.04 -0.09,-0.09 0,-0.06 0.04,-0.1 0.09,-0.1l0.29 0c-0.04,-0.12 -0.15,-0.21 -0.29,-0.21zm0 0.8c-0.13,0 -0.25,-0.05 -0.34,-0.14 -0.1,-0.1 -0.15,-0.22 -0.15,-0.35 0,-0.13 0.05,-0.26 0.14,-0.35 0.1,-0.1 0.22,-0.15 0.35,-0.15 0.28,0 0.5,0.22 0.5,0.5l0 0c0,0.27 -0.22,0.49 -0.5,0.49l0 0z"/>
  <path class="fil4" d="M7.99 9.93c0.02,-0.12 0,-0.73 0,-0.93 -0.02,-0.06 0.44,-0.33 0.74,-0.4 0,0.72 0,1.2 0,1.33 -0.19,0 -0.59,0.01 -0.74,0z"/>
  <path class="fil3" d="M8.1 9.84c0.07,0 0.16,0 0.25,0 0.1,0 0.2,-0.01 0.28,-0.01 0,-0.19 0,-0.57 0,-1.11 -0.23,0.09 -0.48,0.24 -0.54,0.3 0,0.09 0,0.24 0,0.4 0.01,0.18 0.01,0.32 0.01,0.42zm0.73 0.19l-0.1 0c-0.1,-0.01 -0.24,0 -0.38,0 -0.14,0 -0.28,0 -0.36,0l-0.1 -0.01 0.01 -0.1c0.01,-0.06 0,-0.31 0,-0.5 0,-0.16 0,-0.31 0,-0.41l-0.01 -0.02 0.02 -0.06c0.07,-0.12 0.53,-0.36 0.8,-0.43l0.12 -0.03 0 0.13c-0.01,0.72 -0.01,1.2 0,1.33l0 0.1z"/>
  <path class="fil4" d="M13.74 9.86c-0.02,-0.12 0,-0.73 0,-0.93 0.02,-0.06 -0.44,-0.33 -0.74,-0.4 0,0.72 0,1.2 0,1.33 0.19,0 0.59,0.01 0.74,0z"/>
  <path class="fil3" d="M13.13 9.77c0.07,0 0.16,0 0.24,0 0.1,0 0.19,0 0.26,0 0,-0.1 0.01,-0.24 0.01,-0.42 0,-0.16 0,-0.31 0,-0.4 -0.06,-0.06 -0.31,-0.21 -0.54,-0.29l0 0.6 0 0.51 0.03 0zm-0.22 0.19l0 -0.1c0,-0.08 0,-0.29 0,-0.6l0 -0.85 0.11 0.03c0.27,0.06 0.73,0.3 0.8,0.43l0.02 0.03 -0.01 0.03c0,0.09 0,0.26 0,0.42 0,0.21 -0.01,0.44 0,0.5l0.01 0.1 -0.1 0.01c-0.08,0 -0.22,0 -0.37,0 -0.14,0 -0.27,0 -0.37,0l-0.09 0z"/>
  <path class="fil4" d="M11.33 8.4l0 1.26 0.94 0 0 -1.13c-0.2,-0.08 -0.44,-0.14 -0.94,-0.13z"/>
  <path class="fil3" d="M11.43 9.57l0.74 0 0 -0.98c-0.16,-0.05 -0.36,-0.1 -0.74,-0.1l0 0 0 1.08zm0.93 0.19l-1.12 0 0 -1.46 0.09 0c0.52,-0.01 0.78,0.06 0.97,0.14l0.06 0.03 0 1.29z"/>
  <path class="fil4" d="M10.4 8.4l0 1.26 -0.94 0 0 -1.13c0.2,-0.08 0.44,-0.14 0.94,-0.13z"/>
  <path class="fil3" d="M9.56 9.57l0.74 0 0 -1.08 0 0c-0.38,0 -0.58,0.05 -0.74,0.1l0 0.98zm0.93 0.19l-1.12 0 0 -1.29 0.06 -0.03c0.19,-0.08 0.45,-0.15 0.97,-0.14l0.09 0 0 1.46z"/>
  <path class="fil4" d="M7.73 17.41c0,0 0.26,-7.61 0.26,-7.75 0,-0.66 5.75,-0.66 5.75,0 0,0.14 0.26,7.75 0.26,7.75l-6.27 0z"/>
  <path class="fil3" d="M7.83 17.31l6.07 0c-0.03,-0.93 -0.26,-7.52 -0.26,-7.65 0,-0.04 -0.15,-0.17 -0.82,-0.28 -0.51,-0.08 -1.21,-0.12 -1.95,-0.12 -1.79,0 -2.78,0.24 -2.78,0.4 0,0.13 -0.23,6.72 -0.26,7.65zm6.27 0.19l-6.47 0 0 -0.1c0.01,-0.07 0.27,-7.61 0.27,-7.74 0,-0.55 2.27,-0.59 2.97,-0.59 0.69,0 2.96,0.04 2.96,0.59 0,0.13 0.26,7.67 0.27,7.74l0 0.1z"/>
  <path class="fil4" d="M7.73 17.41c0,0 0.26,-7.28 0.26,-7.41 0,-0.67 5.75,-0.67 5.75,0 0,0.13 0.26,7.41 0.26,7.41l-6.27 0z"/>
  <path class="fil3" d="M7.83 17.31l6.07 0c-0.03,-0.91 -0.26,-7.19 -0.26,-7.31 0,-0.05 -0.15,-0.18 -0.82,-0.28 -0.51,-0.08 -1.21,-0.13 -1.95,-0.13 -1.79,0 -2.78,0.24 -2.78,0.41 0,0.12 -0.23,6.4 -0.26,7.31zm6.27 0.19l-6.47 0 0 -0.1c0.09,-2.51 0.27,-7.3 0.27,-7.4 0,-0.56 2.27,-0.6 2.97,-0.6 0.69,0 2.96,0.04 2.96,0.6 0,0.1 0.18,4.89 0.27,7.4l0 0.1z"/>
  <path class="fil4" d="M21.21 18.01l-20.69 0 0 -0.6 20.69 -0.07 0 0.67z"/>
  <path class="fil3" d="M0.61 17.91l20.51 0 0 -0.47 -20.51 0.06 0 0.41zm20.7 0.19l-20.89 0 0 -0.79 20.89 -0.07 0 0.86z"/>
  <path class="fil3" d="M10.66 11.87l0.41 0c-0.01,0 0,-0.58 0,-0.8 -0.01,-0.35 -0.39,-0.37 -0.41,0 -0.01,0.24 0.01,0.8 0,0.8z"/>
  <path class="fil3" d="M10.76 11.77l0.21 0c0,-0.05 0,-0.11 0,-0.2 0,-0.17 0,-0.39 0,-0.5 0,-0.12 -0.05,-0.17 -0.1,-0.18l0 0c-0.05,0 -0.1,0.06 -0.11,0.18 -0.01,0.13 -0.01,0.37 0,0.7zm0.31 0.19l-0.74 0 0.24 -0.15c-0.01,-0.36 -0.01,-0.61 0,-0.75 0.01,-0.25 0.16,-0.36 0.3,-0.36l0 0c0.14,0 0.29,0.13 0.29,0.36 0,0.12 0,0.34 0,0.51 0,0.14 0,0.26 0,0.29l-0.09 0 0 0.1z"/>
  <path class="fil3" d="M10.8 14.47l0.13 0 0 -0.53 -0.13 0 0 0.53z"/>
  <path class="fil3" d="M11.03 14.57l-0.33 0 0 -0.73 0.33 0 0 0.73z"/>
 </g>
</svg>
